# xmcd CD database file
#
# Track frame offsets:
#	182
#	35250
#	46610
#	63162
#	75037
#	97505
#	121650
#	135562
#	158800
#	172150
#	191700
#	204537
#	220200
#	257417
#
# Disc length: 3588 seconds
#
# Revision: 0
# Processed by: cddbd v1.5.1PL0 Copyright (c) Steve Scherf et al.
# Submitted via: CDex 1.51
#
DISCID=a50e020e
DTITLE=Herman, Woody - Caldonia
DYEAR=1994
DGENRE=Jazz
TTITLE0=Caldonia
TTITLE1=The Good Earth
TTITLE2=Bijou
TTITLE3=The Golden Wedding
TTITLE4=Body And Soul
TTITLE5=The Preacher
TTITLE6=Pee Wee Blues
TTITLE7=Apple Honey
TTITLE8=Blue Flame
TTITLE9=Don´t Get Around Much Anymore
TTITLE10=Sidewalks Of Cuba
TTITLE11=Makin´ Whoopee
TTITLE12=Camel Walk
TTITLE13=Leo The Lion
EXTD=YEAR: 1994
EXTT0=
EXTT1=
EXTT2=
EXTT3=
EXTT4=
EXTT5=
EXTT6=
EXTT7=
EXTT8=
EXTT9=
EXTT10=
EXTT11=
EXTT12=
EXTT13=
PLAYORDER=
